<svg width="48" height="25" viewBox="0 0 48 25" fill="none" xmlns="http://www.w3.org/2000/svg">
<path fill-rule="evenodd" clip-rule="evenodd" d="M16.1746 17.6535L20.7434 22.2223C23.5238 25.0027 28.0316 25.0026 30.812 22.2223C31.7289 21.3053 32.3435 20.2005 32.6556 19.0317L35.8462 22.2223C38.6266 25.0026 43.1344 25.0026 45.9147 22.2223C48.6951 19.442 48.6951 14.9341 45.9147 12.1538L35.8462 2.08526C33.0659 -0.695086 28.558 -0.695086 25.7777 2.08526C24.8607 3.00222 24.2462 4.10707 23.9341 5.27588L20.7434 2.08526C17.9631 -0.695085 13.4553 -0.695085 10.6749 2.08526L2.38936 10.3708C-0.796453 13.5566 -0.796453 18.7219 2.38936 21.9077C5.57517 25.0935 10.7404 25.0935 13.9262 21.9077C15.1322 20.7017 15.8817 19.212 16.1746 17.6535ZM18.2263 4.60239C16.8361 3.21222 14.5822 3.21222 13.192 4.60239C11.8025 5.99197 11.8019 8.24455 13.1903 9.63487L23.2606 19.7052C24.6507 21.0953 26.9047 21.0953 28.2948 19.7052C29.6843 18.3157 29.685 16.0635 28.297 14.6731L18.2263 4.60239ZM11.4091 12.8879L8.15778 9.63665L4.90649 12.8879C3.11085 14.6836 3.11085 17.5949 4.90649 19.3905C6.70213 21.1862 9.61344 21.1862 11.4091 19.3905C13.2047 17.5949 13.2047 14.6836 11.4091 12.8879ZM28.2919 9.6337C26.9047 8.24329 26.9056 5.99158 28.2948 4.60239C29.685 3.21222 31.9389 3.21222 33.3291 4.60239L43.3976 14.6709C44.7878 16.0611 44.7878 18.315 43.3976 19.7052C42.0074 21.0953 39.7535 21.0953 38.3634 19.7052L28.2919 9.6337Z" fill="#7D52F4"/>
</svg>
