<svg width="169" height="134" viewBox="0 0 169 134" fill="none" xmlns="http://www.w3.org/2000/svg">
<path d="M75.2083 133.211H73.1163C63.3016 133.211 55.3456 125.255 55.3456 115.44V20.0786C55.3456 10.2639 63.3016 2.30791 73.1163 2.30791H75.2083C85.0229 2.30791 92.9789 10.2639 92.9789 20.0786V115.44C92.9789 125.255 85.0229 133.211 75.2083 133.211Z" fill="#A71D6D"/>
<path d="M130.172 133.211H128.08C118.265 133.211 110.309 125.255 110.309 115.44V20.0786C110.309 10.2639 118.265 2.30791 128.08 2.30791H130.172C139.987 2.30791 147.943 10.2639 147.943 20.0786V115.44C147.943 125.255 139.987 133.211 130.172 133.211Z" fill="#A71D6D"/>
<path d="M65.6631 131.209L63.8511 130.164C55.3524 125.256 52.4404 114.388 57.3471 105.888L113.35 8.88806C118.258 0.389398 129.126 -2.52394 137.626 2.38406L139.436 3.4294C147.936 8.33739 150.848 19.2054 145.942 27.7041L89.9377 124.705C85.0311 133.204 74.1631 136.116 65.6631 131.209Z" fill="#DD2590"/>
<path d="M10.6995 131.209L8.88746 130.164C0.388798 125.256 -2.5232 114.388 2.38346 105.888L58.3861 8.88806C63.2941 0.389398 74.1621 -2.52394 82.6621 2.38406L84.4728 3.4294C92.9728 8.33739 95.8848 19.2054 90.9781 27.7041L34.9741 124.705C30.0675 133.204 19.1995 136.116 10.6995 131.209Z" fill="#DD2590"/>
<path d="M120.627 131.209L118.815 130.164C110.316 125.256 107.404 114.388 112.311 105.888L133.119 69.8494C138.025 61.3494 148.893 58.4374 157.393 63.3454L159.204 64.3907C167.704 69.2974 170.616 80.1654 165.709 88.6654L144.901 124.705C139.995 133.204 129.127 136.116 120.627 131.209Z" fill="#DD2590"/>
</svg>
